<?xml version="1.0" encoding="UTF-8" standalone="no"?>
<!DOCTYPE svg PUBLIC "-//W3C//DTD SVG 1.1//EN" "http://www.w3.org/Graphics/SVG/1.1/DTD/svg11.dtd">
<svg width="100%" height="100%" viewBox="0 0 660 660" version="1.1" xmlns="http://www.w3.org/2000/svg" xmlns:xlink="http://www.w3.org/1999/xlink" xml:space="preserve" xmlns:serif="http://www.serif.com/" style="fill-rule:evenodd;clip-rule:evenodd;stroke-linejoin:round;stroke-miterlimit:2;">
    <g transform="matrix(1,0,0,1,10,74)">
        <path d="M152.1,236.2C148.6,224.1 144.3,203 144.3,203L143.8,203C143.8,203 139.5,224.1 136,236.2L124.9,273.7L163,273.7L152.1,236.2ZM616,96L336,96L336,416L616,416C629.3,416 640,405.3 640,392L640,120C640,106.7 629.3,96 616,96ZM592,216C592,222.6 586.6,228 580,228L568.6,228C561.7,251.6 546.9,275.4 525.9,297.9C534.3,304.3 543,310.4 552,315.9C557.5,319.3 559.3,326.4 556.1,332.1L548.2,346C544.8,351.9 537.3,353.8 531.5,350.3C518.9,342.5 507,334.2 496.1,325.4C485.2,334.1 473.4,342.5 460.7,350.3C454.9,353.8 447.4,351.9 444,346L436.1,332.1C432.9,326.5 434.7,319.3 440.3,315.9C449.6,310.2 458.3,304.2 466.4,297.9C458.5,289.5 451.5,280.9 445.4,272.2C441.4,266.5 443.2,258.6 449.1,255.1L455.6,251.2L462.9,246.9C468.3,243.7 475.3,245.2 478.9,250.3C483.9,257.3 489.7,264.3 496.3,271.2C509.8,257 520.1,242.3 526.3,228L412,228C405.4,228 400,222.6 400,216L400,200C400,193.4 405.4,188 412,188L476,188L476,172C476,165.4 481.4,160 488,160L504,160C510.6,160 516,165.4 516,172L516,188L580,188C586.6,188 592,193.4 592,200L592,216ZM0,120L0,392C0,405.3 10.7,416 24,416L304,416L304,96L24,96C10.7,96 0,106.7 0,120ZM58.9,336.1L116.4,167C118.1,162.1 122.6,158.9 127.8,158.9L160.3,158.9C165.4,158.9 170,162.2 171.7,167L229.2,336.1C231.8,343.9 226.1,352 217.8,352L194.9,352C189.6,351.996 184.902,348.482 183.4,343.4L174,311.5L113.8,311.5L104.7,343.3C103.2,348.4 98.5,352 93.2,352L70.3,352C62.1,352 56.3,343.9 58.9,336.1Z" style="fill:rgb(17,46,81);fill-rule:nonzero;"/>
    </g>
</svg>
