<?xml version="1.0" encoding="UTF-8" standalone="no"?>
<!DOCTYPE svg PUBLIC "-//W3C//DTD SVG 1.1//EN" "http://www.w3.org/Graphics/SVG/1.1/DTD/svg11.dtd">
<svg width="100%" height="100%" viewBox="0 0 547 419" version="1.1" xmlns="http://www.w3.org/2000/svg" xmlns:xlink="http://www.w3.org/1999/xlink" xml:space="preserve" xmlns:serif="http://www.serif.com/" style="fill-rule:evenodd;clip-rule:evenodd;stroke-miterlimit:10;">
    <g transform="matrix(0.718791,0,0,-0.718791,0,417.618)">
        <rect x="0" y="0" width="761" height="581" style="fill:white;"/>
    </g>
    <g transform="matrix(0.718791,0,0,-0.718791,0,416.899)">
        <rect x="0" y="0" width="761" height="580" style="fill:white;"/>
    </g>
    <g transform="matrix(0.718791,0,0,-0.718791,0.359396,150.321)">
        <path d="M380,128.63L380,108.63L140,108.63L140,80" style="fill:none;fill-rule:nonzero;stroke:black;stroke-width:1px;"/>
    </g>
    <g transform="matrix(-0.321453,-0.642906,0.642906,-0.321453,62.1714,225.993)">
        <path d="M136.87,128.815L144.696,128.815L141.565,131.163L141.565,135.076L136.87,128.815Z" style="fill-rule:nonzero;stroke:black;stroke-width:1px;"/>
    </g>
    <g transform="matrix(0.718791,0,0,-0.718791,0.359396,150.321)">
        <path d="M380,128.63L380,80" style="fill:none;fill-rule:nonzero;stroke:black;stroke-width:1px;"/>
    </g>
    <g transform="matrix(-0.321453,-0.642906,0.642906,-0.321453,311.83,380.291)">
        <path d="M376.87,128.815L384.696,128.815L381.565,131.163L381.565,135.076L376.87,128.815Z" style="fill-rule:nonzero;stroke:black;stroke-width:1px;"/>
    </g>
    <g transform="matrix(0.718791,0,0,-0.718791,0.359396,150.321)">
        <path d="M380,128.63L380,108.63L620,108.63L620,80" style="fill:none;fill-rule:nonzero;stroke:black;stroke-width:1px;"/>
    </g>
    <g transform="matrix(-0.321453,-0.642906,0.642906,-0.321453,561.488,534.588)">
        <path d="M616.87,128.815L624.696,128.815L621.565,131.163L621.565,135.076L616.87,128.815Z" style="fill-rule:nonzero;stroke:black;stroke-width:1px;"/>
    </g>
    <g transform="matrix(0.718791,0,0,-0.718791,0.359396,72.2385)">
        <rect x="320" y="20" width="120" height="60" style="fill:rgb(255,230,204);stroke:rgb(215,155,0);stroke-width:1px;stroke-miterlimit:4;"/>
    </g>
    <g transform="matrix(0.718791,0,0,-0.718791,0.359396,402.882)">
        <rect x="40" y="240" width="80" height="80" style="fill:rgb(255,230,204);stroke:rgb(215,155,0);stroke-width:1px;stroke-miterlimit:4;"/>
    </g>
    <g transform="matrix(0.718791,0,0,-0.718791,0.359396,747.902)">
        <rect x="100" y="480" width="80" height="80" style="fill:rgb(255,230,204);stroke:rgb(215,155,0);stroke-width:1px;stroke-miterlimit:4;"/>
    </g>
    <g transform="matrix(0.718791,0,0,-0.718791,0.359396,575.392)">
        <rect x="40" y="360" width="80" height="80" style="fill:rgb(255,230,204);stroke:rgb(215,155,0);stroke-width:1px;stroke-miterlimit:4;"/>
    </g>
    <g transform="matrix(0.718791,0,0,-0.718791,0.359396,575.392)">
        <rect x="160" y="360" width="80" height="80" style="fill:rgb(255,230,204);stroke:rgb(215,155,0);stroke-width:1px;stroke-miterlimit:4;"/>
    </g>
    <g transform="matrix(0.718791,0,0,-0.718791,0.359396,402.882)">
        <rect x="160" y="240" width="80" height="80" style="fill:rgb(255,230,204);stroke:rgb(215,155,0);stroke-width:1px;stroke-miterlimit:4;"/>
    </g>
    <g transform="matrix(0,0.718791,-0.718791,0,341.293,140.031)">
        <path d="M0.685,334.315L279.315,334.315" style="fill:none;fill-rule:nonzero;stroke:black;stroke-width:1px;"/>
    </g>
    <g transform="matrix(-0.321453,-0.642906,0.642906,-0.321453,-159.631,584.878)">
        <path d="M136.87,473.815L144.696,473.815L141.565,476.163L141.565,480.076L136.87,473.815Z" style="fill-rule:nonzero;stroke:black;stroke-width:1px;"/>
    </g>
    <text x="236.516px" y="40.252px" style="font-family:'Arial-BoldMT', 'Arial', sans-serif;font-weight:700;font-size:10.063px;">ROOT FOLDER</text>
    <g>
        <text x="37.377px" y="199.824px" style="font-family:'Arial-BoldMT', 'Arial', sans-serif;font-weight:700;font-size:10.063px;">Concept</text>
        <text x="42.689px" y="211.327px" style="font-family:'Arial-BoldMT', 'Arial', sans-serif;font-weight:700;font-size:10.063px;">topics</text>
    </g>
    <text x="83.29px" y="378.084px" style="font-family:'Arial-BoldMT', 'Arial', sans-serif;font-weight:700;font-size:10.063px;">Images</text>
    <g>
        <text x="33.165px" y="286.079px" style="font-family:'Arial-BoldMT', 'Arial', sans-serif;font-weight:700;font-size:10.063px;">Reference</text>
        <text x="42.689px" y="297.582px" style="font-family:'Arial-BoldMT', 'Arial', sans-serif;font-weight:700;font-size:10.063px;">topics</text>
    </g>
    <g>
        <text x="122.217px" y="286.079px" style="font-family:'Arial-BoldMT', 'Arial', sans-serif;font-weight:700;font-size:10.063px;">Glossary</text>
        <text x="127.26px" y="297.582px" style="font-family:'Arial-BoldMT', 'Arial', sans-serif;font-weight:700;font-size:10.063px;">entries</text>
    </g>
    <g>
        <text x="132.662px" y="199.824px" style="font-family:'Arial-BoldMT', 'Arial', sans-serif;font-weight:700;font-size:10.063px;">T<tspan x="138.061px 143.656px " y="199.824px 199.824px ">as</tspan>k</text>
        <text x="128.933px" y="211.327px" style="font-family:'Arial-BoldMT', 'Arial', sans-serif;font-weight:700;font-size:10.063px;">topics</text>
    </g>
    <g transform="matrix(0.718791,0,0,-0.718791,0.359396,394.71)">
        <path d="M140,353.63L140,208.63L200,208.63L200,195" style="fill:none;fill-rule:nonzero;stroke:black;stroke-width:1px;"/>
    </g>
    <g transform="matrix(-0.321453,-0.642906,0.642906,-0.321453,-20.0678,498.623)">
        <path d="M196.87,353.815L204.696,353.815L201.565,356.163L201.565,360.076L196.87,353.815Z" style="fill-rule:nonzero;stroke:black;stroke-width:1px;"/>
    </g>
    <g transform="matrix(0.718791,0,0,-0.718791,0.359396,394.71)">
        <path d="M140,353.63L140,208.63L80,208.63L80,195" style="fill:none;fill-rule:nonzero;stroke:black;stroke-width:1px;"/>
    </g>
    <g transform="matrix(-0.321453,-0.642906,0.642906,-0.321453,-144.897,421.474)">
        <path d="M76.87,353.815L84.696,353.815L81.565,356.163L81.565,360.076L76.87,353.815Z" style="fill-rule:nonzero;stroke:black;stroke-width:1px;"/>
    </g>
    <g transform="matrix(0.718791,0,0,-0.718791,0.359396,237.56)">
        <rect x="80" y="135" width="120" height="60" style="fill:rgb(255,230,204);stroke:rgb(215,155,0);stroke-width:1px;stroke-miterlimit:4;"/>
    </g>
    <g transform="matrix(0.718791,0,0,-0.718791,0.359396,237.56)">
        <rect x="320" y="135" width="120" height="60" style="fill:rgb(255,230,204);stroke:rgb(215,155,0);stroke-width:1px;stroke-miterlimit:4;"/>
    </g>
    <g transform="matrix(0.718791,0,0,-0.718791,0.359396,312.049)">
        <path d="M140,233.63L140,213.63L200,213.63L200,200" style="fill:none;fill-rule:nonzero;stroke:black;stroke-width:1px;"/>
    </g>
    <g transform="matrix(-0.321453,-0.642906,0.642906,-0.321453,57.081,373.793)">
        <path d="M196.87,233.815L204.696,233.815L201.565,236.163L201.565,240.076L196.87,233.815Z" style="fill-rule:nonzero;stroke:black;stroke-width:1px;"/>
    </g>
    <g transform="matrix(0.718791,0,0,-0.718791,0.359396,312.049)">
        <path d="M140,233.63L140,213.63L80,213.63L80,200" style="fill:none;fill-rule:nonzero;stroke:black;stroke-width:1px;"/>
    </g>
    <g transform="matrix(-0.321453,-0.642906,0.642906,-0.321453,-67.7483,296.645)">
        <path d="M76.87,233.815L84.696,233.815L81.565,236.163L81.565,240.076L76.87,233.815Z" style="fill-rule:nonzero;stroke:black;stroke-width:1px;"/>
    </g>
    <g transform="matrix(0.718791,0,0,-0.718791,0.359396,402.882)">
        <rect x="280" y="240" width="80" height="80" style="fill:rgb(255,230,204);stroke:rgb(215,155,0);stroke-width:1px;stroke-miterlimit:4;"/>
    </g>
    <g transform="matrix(0.718791,0,0,-0.718791,0.359396,747.902)">
        <rect x="340" y="480" width="80" height="80" style="fill:rgb(255,230,204);stroke:rgb(215,155,0);stroke-width:1px;stroke-miterlimit:4;"/>
    </g>
    <g transform="matrix(0.718791,0,0,-0.718791,0.359396,575.392)">
        <rect x="280" y="360" width="80" height="80" style="fill:rgb(255,230,204);stroke:rgb(215,155,0);stroke-width:1px;stroke-miterlimit:4;"/>
    </g>
    <g transform="matrix(0.718791,0,0,-0.718791,0.359396,575.392)">
        <rect x="400" y="360" width="80" height="80" style="fill:rgb(255,230,204);stroke:rgb(215,155,0);stroke-width:1px;stroke-miterlimit:4;"/>
    </g>
    <g transform="matrix(0.718791,0,0,-0.718791,0.359396,402.882)">
        <rect x="400" y="240" width="80" height="80" style="fill:rgb(255,230,204);stroke:rgb(215,155,0);stroke-width:1px;stroke-miterlimit:4;"/>
    </g>
    <g transform="matrix(0,0.718791,-0.718791,0,513.803,-32.4786)">
        <path d="M240.685,334.315L519.315,334.315" style="fill:none;fill-rule:nonzero;stroke:black;stroke-width:1px;"/>
    </g>
    <g transform="matrix(-0.321453,-0.642906,0.642906,-0.321453,90.0274,739.175)">
        <path d="M376.87,473.815L384.696,473.815L381.565,476.163L381.565,480.076L376.87,473.815Z" style="fill-rule:nonzero;stroke:black;stroke-width:1px;"/>
    </g>
    <text x="78.258px" y="122.913px" style="font-family:'Arial-BoldMT', 'Arial', sans-serif;font-weight:700;font-size:10.063px;">ENGLISH</text>
    <text x="254.407px" y="122.913px" style="font-family:'Arial-BoldMT', 'Arial', sans-serif;font-weight:700;font-size:10.063px;">POLISH</text>
    <g>
        <text x="209.887px" y="199.824px" style="font-family:'Arial-BoldMT', 'Arial', sans-serif;font-weight:700;font-size:10.063px;">Concept</text>
        <text x="215.199px" y="211.327px" style="font-family:'Arial-BoldMT', 'Arial', sans-serif;font-weight:700;font-size:10.063px;">topics</text>
    </g>
    <text x="255.8px" y="378.084px" style="font-family:'Arial-BoldMT', 'Arial', sans-serif;font-weight:700;font-size:10.063px;">Images</text>
    <g>
        <text x="205.675px" y="286.079px" style="font-family:'Arial-BoldMT', 'Arial', sans-serif;font-weight:700;font-size:10.063px;">Reference</text>
        <text x="215.199px" y="297.582px" style="font-family:'Arial-BoldMT', 'Arial', sans-serif;font-weight:700;font-size:10.063px;">topics</text>
    </g>
    <g>
        <text x="294.727px" y="286.079px" style="font-family:'Arial-BoldMT', 'Arial', sans-serif;font-weight:700;font-size:10.063px;">Glossary</text>
        <text x="299.77px" y="297.582px" style="font-family:'Arial-BoldMT', 'Arial', sans-serif;font-weight:700;font-size:10.063px;">entries</text>
    </g>
    <g>
        <text x="305.172px" y="199.824px" style="font-family:'Arial-BoldMT', 'Arial', sans-serif;font-weight:700;font-size:10.063px;">T<tspan x="310.571px 316.166px " y="199.824px 199.824px ">as</tspan>k</text>
        <text x="301.443px" y="211.327px" style="font-family:'Arial-BoldMT', 'Arial', sans-serif;font-weight:700;font-size:10.063px;">topics</text>
    </g>
    <g transform="matrix(0.718791,0,0,-0.718791,0.359396,394.71)">
        <path d="M380,353.63L380,208.63L440,208.63L440,195" style="fill:none;fill-rule:nonzero;stroke:black;stroke-width:1px;"/>
    </g>
    <g transform="matrix(-0.321453,-0.642906,0.642906,-0.321453,229.591,652.92)">
        <path d="M436.87,353.815L444.696,353.815L441.565,356.163L441.565,360.076L436.87,353.815Z" style="fill-rule:nonzero;stroke:black;stroke-width:1px;"/>
    </g>
    <g transform="matrix(0.718791,0,0,-0.718791,0.359396,394.71)">
        <path d="M380,353.63L380,208.63L320,208.63L320,195" style="fill:none;fill-rule:nonzero;stroke:black;stroke-width:1px;"/>
    </g>
    <g transform="matrix(-0.321453,-0.642906,0.642906,-0.321453,104.762,575.771)">
        <path d="M316.87,353.815L324.696,353.815L321.565,356.163L321.565,360.076L316.87,353.815Z" style="fill-rule:nonzero;stroke:black;stroke-width:1px;"/>
    </g>
    <g transform="matrix(0.718791,0,0,-0.718791,0.359396,312.049)">
        <path d="M380,233.63L380,213.63L440,213.63L440,200" style="fill:none;fill-rule:nonzero;stroke:black;stroke-width:1px;"/>
    </g>
    <g transform="matrix(-0.321453,-0.642906,0.642906,-0.321453,306.74,528.091)">
        <path d="M436.87,233.815L444.696,233.815L441.565,236.163L441.565,240.076L436.87,233.815Z" style="fill-rule:nonzero;stroke:black;stroke-width:1px;"/>
    </g>
    <g transform="matrix(0.718791,0,0,-0.718791,0.359396,312.049)">
        <path d="M380,233.63L380,213.63L320,213.63L320,200" style="fill:none;fill-rule:nonzero;stroke:black;stroke-width:1px;"/>
    </g>
    <g transform="matrix(-0.321453,-0.642906,0.642906,-0.321453,181.91,450.942)">
        <path d="M316.87,233.815L324.696,233.815L321.565,236.163L321.565,240.076L316.87,233.815Z" style="fill-rule:nonzero;stroke:black;stroke-width:1px;"/>
    </g>
    <g transform="matrix(0.718791,0,0,-0.718791,0.359396,237.56)">
        <rect x="560" y="135" width="120" height="60" style="fill:rgb(255,230,204);stroke:rgb(215,155,0);stroke-width:1px;stroke-miterlimit:4;"/>
    </g>
    <g transform="matrix(0.718791,0,0,-0.718791,0.359396,395.694)">
        <rect x="520" y="235" width="80" height="80" style="fill:rgb(255,230,204);stroke:rgb(215,155,0);stroke-width:1px;stroke-miterlimit:4;"/>
    </g>
    <g transform="matrix(0.718791,0,0,-0.718791,0.359396,395.694)">
        <rect x="640" y="235" width="80" height="80" style="fill:rgb(255,230,204);stroke:rgb(215,155,0);stroke-width:1px;stroke-miterlimit:4;"/>
    </g>
    <text x="422.166px" y="122.913px" style="font-family:'Arial-BoldMT', 'Arial', sans-serif;font-weight:700;font-size:10.063px;">COMMON</text>
    <text x="386.676px" y="201.98px" style="font-family:'Arial-BoldMT', 'Arial', sans-serif;font-weight:700;font-size:10.063px;">T<tspan x="392.071px 398.212px " y="201.98px 201.98px ">op</tspan>ics</text>
    <text x="471.437px" y="201.98px" style="font-family:'Arial-BoldMT', 'Arial', sans-serif;font-weight:700;font-size:10.063px;">Images</text>
    <g transform="matrix(0.718791,0,0,-0.718791,0.359396,304.861)">
        <path d="M620,228.63L620,208.63L680,208.63L680,195" style="fill:none;fill-rule:nonzero;stroke:black;stroke-width:1px;"/>
    </g>
    <g transform="matrix(-0.321453,-0.642906,0.642906,-0.321453,559.613,677.187)">
        <path d="M676.87,228.815L684.696,228.815L681.565,231.163L681.565,235.076L676.87,228.815Z" style="fill-rule:nonzero;stroke:black;stroke-width:1px;"/>
    </g>
    <g transform="matrix(0.718791,0,0,-0.718791,0.359396,304.861)">
        <path d="M620,228.63L620,208.63L560,208.63L560,195" style="fill:none;fill-rule:nonzero;stroke:black;stroke-width:1px;"/>
    </g>
    <g transform="matrix(-0.321453,-0.642906,0.642906,-0.321453,434.783,600.038)">
        <path d="M556.87,228.815L564.696,228.815L561.565,231.163L561.565,235.076L556.87,228.815Z" style="fill-rule:nonzero;stroke:black;stroke-width:1px;"/>
    </g>
</svg>
