<?xml version="1.0" encoding="UTF-8" standalone="no"?>
<!DOCTYPE svg PUBLIC "-//W3C//DTD SVG 1.1//EN" "http://www.w3.org/Graphics/SVG/1.1/DTD/svg11.dtd">
<svg width="100%" height="100%" viewBox="0 0 376 180" version="1.1" xmlns="http://www.w3.org/2000/svg" xmlns:xlink="http://www.w3.org/1999/xlink" xml:space="preserve" xmlns:serif="http://www.serif.com/" style="fill-rule:evenodd;clip-rule:evenodd;stroke-miterlimit:10;">
    <g transform="matrix(0.71977,0,0,-0.71977,0,179.942)">
        <rect x="0" y="0" width="521" height="250" style="fill:white;"/>
    </g>
    <g transform="matrix(0.71977,0,0,-0.71977,0,179.942)">
        <rect x="0" y="0" width="521" height="250" style="fill:white;"/>
    </g>
    <g transform="matrix(0.71977,0,0,-0.71977,0.359885,154.124)">
        <path d="M260,133.63L260,103.63L60,103.63L60,80" style="fill:none;fill-rule:nonzero;stroke:black;stroke-width:1px;"/>
    </g>
    <g transform="matrix(-0.321891,-0.643781,0.643781,-0.321891,-24.2956,180.007)">
        <path d="M56.87,133.815L64.696,133.815L61.565,136.163L61.565,140.076L56.87,133.815Z" style="fill-rule:nonzero;stroke:black;stroke-width:1px;"/>
    </g>
    <g transform="matrix(0,0.71977,-0.71977,0,264.382,-109.898)">
        <path d="M233.185,106.815L286.815,106.815" style="fill:none;fill-rule:nonzero;stroke:black;stroke-width:1px;"/>
    </g>
    <g transform="matrix(-0.321891,-0.643781,0.643781,-0.321891,184.036,308.763)">
        <path d="M256.87,133.815L264.696,133.815L261.565,136.163L261.565,140.076L256.87,133.815Z" style="fill-rule:nonzero;stroke:black;stroke-width:1px;"/>
    </g>
    <g transform="matrix(0.71977,0,0,-0.71977,0.359885,154.124)">
        <path d="M260,133.63L260,103.63L160,103.63L160,80" style="fill:none;fill-rule:nonzero;stroke:black;stroke-width:1px;"/>
    </g>
    <g transform="matrix(-0.321891,-0.643781,0.643781,-0.321891,79.8704,244.385)">
        <path d="M156.87,133.815L164.696,133.815L161.565,136.163L161.565,140.076L156.87,133.815Z" style="fill-rule:nonzero;stroke:black;stroke-width:1px;"/>
    </g>
    <g transform="matrix(0.71977,0,0,-0.71977,0.359885,154.124)">
        <path d="M260,133.63L260,103.63L360,103.63L360,80" style="fill:none;fill-rule:nonzero;stroke:black;stroke-width:1px;"/>
    </g>
    <g transform="matrix(-0.321891,-0.643781,0.643781,-0.321891,288.202,373.141)">
        <path d="M356.87,133.815L364.696,133.815L361.565,136.163L361.565,140.076L356.87,133.815Z" style="fill-rule:nonzero;stroke:black;stroke-width:1px;"/>
    </g>
    <g transform="matrix(0.71977,0,0,-0.71977,0.359885,154.124)">
        <path d="M260,133.63L260,103.63L460,103.63L460,80" style="fill:none;fill-rule:nonzero;stroke:black;stroke-width:1px;"/>
    </g>
    <g transform="matrix(-0.321891,-0.643781,0.643781,-0.321891,392.368,437.519)">
        <path d="M456.87,133.815L464.696,133.815L461.565,136.163L461.565,140.076L456.87,133.815Z" style="fill-rule:nonzero;stroke:black;stroke-width:1px;"/>
    </g>
    <g transform="matrix(0.71977,0,0,-0.71977,0.359885,72.3368)">
        <rect x="200" y="20" width="120" height="60" style="fill:rgb(255,230,204);stroke:rgb(215,155,0);stroke-width:1px;stroke-miterlimit:4;"/>
    </g>
    <g transform="matrix(0.71977,0,0,-0.71977,0.359885,290.88)">
        <path d="M200,203.63L190,203.63L190,200" style="fill:none;fill-rule:nonzero;stroke:black;stroke-width:1px;"/>
    </g>
    <g transform="matrix(-0.321891,-0.643781,0.643781,-0.321891,66.0555,336.615)">
        <path d="M186.87,203.815L194.696,203.815L191.565,206.163L191.565,210.076L186.87,203.815Z" style="fill-rule:nonzero;stroke:black;stroke-width:1px;"/>
    </g>
    <g transform="matrix(0.71977,0,0,-0.71977,0.359885,259.477)">
        <rect x="120" y="140" width="80" height="80" style="fill:rgb(255,230,204);stroke:rgb(215,155,0);stroke-width:1px;stroke-miterlimit:4;"/>
    </g>
    <g transform="matrix(0.71977,0,0,-0.71977,0.359885,259.477)">
        <rect x="20" y="140" width="80" height="80" style="fill:rgb(255,230,204);stroke:rgb(215,155,0);stroke-width:1px;stroke-miterlimit:4;"/>
    </g>
    <g transform="matrix(0.71977,0,0,-0.71977,0.359885,259.477)">
        <rect x="220" y="140" width="80" height="80" style="fill:rgb(255,230,204);stroke:rgb(215,155,0);stroke-width:1px;stroke-miterlimit:4;"/>
    </g>
    <g transform="matrix(0.71977,0,0,-0.71977,0.359885,314.446)">
        <path d="M340,216.37L330,216.37L330,220" style="fill:none;fill-rule:nonzero;stroke:black;stroke-width:1px;"/>
    </g>
    <g transform="matrix(0.321891,0.643781,-0.643781,0.321891,269.828,-126.695)">
        <path d="M326.87,213.055L334.696,213.055L331.565,215.403L331.565,219.316L326.87,213.055Z" style="fill-rule:nonzero;stroke:black;stroke-width:1px;"/>
    </g>
    <g transform="matrix(0.71977,0,0,-0.71977,0.359885,259.477)">
        <rect x="320" y="140" width="80" height="80" style="fill:rgb(255,230,204);stroke:rgb(215,155,0);stroke-width:1px;stroke-miterlimit:4;"/>
    </g>
    <g transform="matrix(0.71977,0,0,-0.71977,0.359885,259.477)">
        <rect x="420" y="140" width="80" height="80" style="fill:rgb(255,230,204);stroke:rgb(215,155,0);stroke-width:1px;stroke-miterlimit:4;"/>
    </g>
    <text x="150.466px" y="40.307px" style="font-family:'Arial-BoldMT', 'Arial', sans-serif;font-weight:700;font-size:10.077px;">ROOT FOLDER</text>
    <g>
        <text x="95.01px" y="128.119px" style="font-family:'Arial-BoldMT', 'Arial', sans-serif;font-weight:700;font-size:10.077px;">Concept</text>
        <text x="100.329px" y="139.636px" style="font-family:'Arial-BoldMT', 'Arial', sans-serif;font-weight:700;font-size:10.077px;">topics</text>
    </g>
    <text x="25.822px" y="133.877px" style="font-family:'Arial-BoldMT', 'Arial', sans-serif;font-weight:700;font-size:10.077px;">Images</text>
    <g>
        <text x="176.029px" y="128.119px" style="font-family:'Arial-BoldMT', 'Arial', sans-serif;font-weight:700;font-size:10.077px;">T<tspan x="181.435px 187.038px " y="128.119px 128.119px ">as</tspan>k</text>
        <text x="172.295px" y="139.636px" style="font-family:'Arial-BoldMT', 'Arial', sans-serif;font-weight:700;font-size:10.077px;">topics</text>
    </g>
    <g>
        <text x="234.746px" y="128.119px" style="font-family:'Arial-BoldMT', 'Arial', sans-serif;font-weight:700;font-size:10.077px;">Reference</text>
        <text x="244.283px" y="139.636px" style="font-family:'Arial-BoldMT', 'Arial', sans-serif;font-weight:700;font-size:10.077px;">topics</text>
    </g>
    <g>
        <text x="309.523px" y="128.119px" style="font-family:'Arial-BoldMT', 'Arial', sans-serif;font-weight:700;font-size:10.077px;">Glossary</text>
        <text x="314.573px" y="139.636px" style="font-family:'Arial-BoldMT', 'Arial', sans-serif;font-weight:700;font-size:10.077px;">entries</text>
    </g>
</svg>
