<?xml version="1.0" encoding="UTF-8" standalone="no"?>
<!DOCTYPE svg PUBLIC "-//W3C//DTD SVG 1.1//EN" "http://www.w3.org/Graphics/SVG/1.1/DTD/svg11.dtd">
<svg width="100%" height="100%" viewBox="0 0 376 419" version="1.1" xmlns="http://www.w3.org/2000/svg" xmlns:xlink="http://www.w3.org/1999/xlink" xml:space="preserve" xmlns:serif="http://www.serif.com/" style="fill-rule:evenodd;clip-rule:evenodd;stroke-miterlimit:10;">
    <g transform="matrix(0.71977,0,0,-0.71977,0,417.466)">
        <rect x="0" y="0" width="521" height="580" style="fill:white;"/>
    </g>
    <g transform="matrix(0.71977,0,0,-0.71977,0,417.466)">
        <rect x="0" y="0" width="521" height="580" style="fill:white;"/>
    </g>
    <g transform="matrix(0.71977,0,0,-0.71977,0.359885,150.525)">
        <path d="M260,128.63L260,108.63L140,108.63L140,80" style="fill:none;fill-rule:nonzero;stroke:black;stroke-width:1px;"/>
    </g>
    <g transform="matrix(-0.32189,-0.643782,0.643782,-0.32189,62.256,226.301)">
        <path d="M136.87,128.815L144.696,128.815L141.565,131.163L141.565,135.076L136.87,128.815Z" style="fill-rule:nonzero;stroke:black;stroke-width:1px;"/>
    </g>
    <g transform="matrix(0.71977,0,0,-0.71977,0.359885,150.525)">
        <path d="M260,128.63L260,108.63L380,108.63L380,80" style="fill:none;fill-rule:nonzero;stroke:black;stroke-width:1px;"/>
    </g>
    <g transform="matrix(-0.32189,-0.643782,0.643782,-0.32189,312.254,380.809)">
        <path d="M376.87,128.815L384.696,128.815L381.565,131.163L381.565,135.076L376.87,128.815Z" style="fill-rule:nonzero;stroke:black;stroke-width:1px;"/>
    </g>
    <g transform="matrix(0.71977,0,0,-0.71977,0.359885,72.3368)">
        <rect x="200" y="20" width="120" height="60" style="fill:rgb(255,230,204);stroke:rgb(215,155,0);stroke-width:1px;stroke-miterlimit:4;"/>
    </g>
    <g transform="matrix(0.71977,0,0,-0.71977,0.359885,403.431)">
        <rect x="40" y="240" width="80" height="80" style="fill:rgb(255,230,204);stroke:rgb(215,155,0);stroke-width:1px;stroke-miterlimit:4;"/>
    </g>
    <g transform="matrix(0.71977,0,0,-0.71977,0.359885,748.92)">
        <rect x="100" y="480" width="80" height="80" style="fill:rgb(255,230,204);stroke:rgb(215,155,0);stroke-width:1px;stroke-miterlimit:4;"/>
    </g>
    <g transform="matrix(0.71977,0,0,-0.71977,0.359885,576.176)">
        <rect x="40" y="360" width="80" height="80" style="fill:rgb(255,230,204);stroke:rgb(215,155,0);stroke-width:1px;stroke-miterlimit:4;"/>
    </g>
    <g transform="matrix(0.71977,0,0,-0.71977,0.359885,576.176)">
        <rect x="160" y="360" width="80" height="80" style="fill:rgb(255,230,204);stroke:rgb(215,155,0);stroke-width:1px;stroke-miterlimit:4;"/>
    </g>
    <g transform="matrix(0.71977,0,0,-0.71977,0.359885,403.431)">
        <rect x="160" y="240" width="80" height="80" style="fill:rgb(255,230,204);stroke:rgb(215,155,0);stroke-width:1px;stroke-miterlimit:4;"/>
    </g>
    <g transform="matrix(0,0.71977,-0.71977,0,341.757,140.222)">
        <path d="M0.685,334.315L279.315,334.315" style="fill:none;fill-rule:nonzero;stroke:black;stroke-width:1px;"/>
    </g>
    <g transform="matrix(-0.321891,-0.643781,0.643781,-0.321891,-159.849,585.674)">
        <path d="M136.87,473.815L144.696,473.815L141.565,476.163L141.565,480.076L136.87,473.815Z" style="fill-rule:nonzero;stroke:black;stroke-width:1px;"/>
    </g>
    <text x="150.466px" y="40.307px" style="font-family:'Arial-BoldMT', 'Arial', sans-serif;font-weight:700;font-size:10.077px;">ROOT FOLDER</text>
    <g>
        <text x="37.428px" y="200.096px" style="font-family:'Arial-BoldMT', 'Arial', sans-serif;font-weight:700;font-size:10.077px;">Concept</text>
        <text x="42.748px" y="211.613px" style="font-family:'Arial-BoldMT', 'Arial', sans-serif;font-weight:700;font-size:10.077px;">topics</text>
    </g>
    <text x="83.403px" y="378.599px" style="font-family:'Arial-BoldMT', 'Arial', sans-serif;font-weight:700;font-size:10.077px;">Images</text>
    <g>
        <text x="33.211px" y="286.468px" style="font-family:'Arial-BoldMT', 'Arial', sans-serif;font-weight:700;font-size:10.077px;">Reference</text>
        <text x="42.748px" y="297.985px" style="font-family:'Arial-BoldMT', 'Arial', sans-serif;font-weight:700;font-size:10.077px;">topics</text>
    </g>
    <g>
        <text x="122.383px" y="286.468px" style="font-family:'Arial-BoldMT', 'Arial', sans-serif;font-weight:700;font-size:10.077px;">Glossary</text>
        <text x="127.433px" y="297.985px" style="font-family:'Arial-BoldMT', 'Arial', sans-serif;font-weight:700;font-size:10.077px;">entries</text>
    </g>
    <g>
        <text x="132.842px" y="200.096px" style="font-family:'Arial-BoldMT', 'Arial', sans-serif;font-weight:700;font-size:10.077px;">T<tspan x="138.249px 143.852px " y="200.096px 200.096px ">as</tspan>k</text>
        <text x="129.109px" y="211.613px" style="font-family:'Arial-BoldMT', 'Arial', sans-serif;font-weight:700;font-size:10.077px;">topics</text>
    </g>
    <g transform="matrix(0.71977,0,0,-0.71977,0.359885,395.247)">
        <path d="M140,353.63L140,208.63L200,208.63L200,195" style="fill:none;fill-rule:nonzero;stroke:black;stroke-width:1px;"/>
    </g>
    <g transform="matrix(-0.321891,-0.643781,0.643781,-0.321891,-20.0951,499.301)">
        <path d="M196.87,353.815L204.696,353.815L201.565,356.163L201.565,360.076L196.87,353.815Z" style="fill-rule:nonzero;stroke:black;stroke-width:1px;"/>
    </g>
    <g transform="matrix(0.71977,0,0,-0.71977,0.359885,395.247)">
        <path d="M140,353.63L140,208.63L80,208.63L80,195" style="fill:none;fill-rule:nonzero;stroke:black;stroke-width:1px;"/>
    </g>
    <g transform="matrix(-0.321891,-0.643781,0.643781,-0.321891,-145.094,422.048)">
        <path d="M76.87,353.815L84.696,353.815L81.565,356.163L81.565,360.076L76.87,353.815Z" style="fill-rule:nonzero;stroke:black;stroke-width:1px;"/>
    </g>
    <g transform="matrix(0.71977,0,0,-0.71977,0.359885,237.884)">
        <rect x="80" y="135" width="120" height="60" style="fill:rgb(255,230,204);stroke:rgb(215,155,0);stroke-width:1px;stroke-miterlimit:4;"/>
    </g>
    <g transform="matrix(0.71977,0,0,-0.71977,0.359885,237.884)">
        <rect x="320" y="135" width="120" height="60" style="fill:rgb(255,230,204);stroke:rgb(215,155,0);stroke-width:1px;stroke-miterlimit:4;"/>
    </g>
    <g transform="matrix(0.71977,0,0,-0.71977,0.359885,312.474)">
        <path d="M140,233.63L140,213.63L200,213.63L200,200" style="fill:none;fill-rule:nonzero;stroke:black;stroke-width:1px;"/>
    </g>
    <g transform="matrix(-0.321891,-0.643781,0.643781,-0.321891,57.1587,374.302)">
        <path d="M196.87,233.815L204.696,233.815L201.565,236.163L201.565,240.076L196.87,233.815Z" style="fill-rule:nonzero;stroke:black;stroke-width:1px;"/>
    </g>
    <g transform="matrix(0.71977,0,0,-0.71977,0.359885,312.474)">
        <path d="M140,233.63L140,213.63L80,213.63L80,200" style="fill:none;fill-rule:nonzero;stroke:black;stroke-width:1px;"/>
    </g>
    <g transform="matrix(-0.321891,-0.643781,0.643781,-0.321891,-67.8406,297.048)">
        <path d="M76.87,233.815L84.696,233.815L81.565,236.163L81.565,240.076L76.87,233.815Z" style="fill-rule:nonzero;stroke:black;stroke-width:1px;"/>
    </g>
    <g transform="matrix(0.71977,0,0,-0.71977,0.359885,403.431)">
        <rect x="280" y="240" width="80" height="80" style="fill:rgb(255,230,204);stroke:rgb(215,155,0);stroke-width:1px;stroke-miterlimit:4;"/>
    </g>
    <g transform="matrix(0.71977,0,0,-0.71977,0.359885,748.92)">
        <rect x="340" y="480" width="80" height="80" style="fill:rgb(255,230,204);stroke:rgb(215,155,0);stroke-width:1px;stroke-miterlimit:4;"/>
    </g>
    <g transform="matrix(0.71977,0,0,-0.71977,0.359885,576.176)">
        <rect x="280" y="360" width="80" height="80" style="fill:rgb(255,230,204);stroke:rgb(215,155,0);stroke-width:1px;stroke-miterlimit:4;"/>
    </g>
    <g transform="matrix(0.71977,0,0,-0.71977,0.359885,576.176)">
        <rect x="400" y="360" width="80" height="80" style="fill:rgb(255,230,204);stroke:rgb(215,155,0);stroke-width:1px;stroke-miterlimit:4;"/>
    </g>
    <g transform="matrix(0.71977,0,0,-0.71977,0.359885,403.431)">
        <rect x="400" y="240" width="80" height="80" style="fill:rgb(255,230,204);stroke:rgb(215,155,0);stroke-width:1px;stroke-miterlimit:4;"/>
    </g>
    <text x="78.365px" y="123.081px" style="font-family:'Arial-BoldMT', 'Arial', sans-serif;font-weight:700;font-size:10.077px;">ENGLISH</text>
    <text x="254.753px" y="123.081px" style="font-family:'Arial-BoldMT', 'Arial', sans-serif;font-weight:700;font-size:10.077px;">POLISH</text>
    <g>
        <text x="210.173px" y="200.096px" style="font-family:'Arial-BoldMT', 'Arial', sans-serif;font-weight:700;font-size:10.077px;">Concept</text>
        <text x="215.492px" y="211.613px" style="font-family:'Arial-BoldMT', 'Arial', sans-serif;font-weight:700;font-size:10.077px;">topics</text>
    </g>
    <text x="256.148px" y="378.599px" style="font-family:'Arial-BoldMT', 'Arial', sans-serif;font-weight:700;font-size:10.077px;">Images</text>
    <g>
        <text x="205.955px" y="286.468px" style="font-family:'Arial-BoldMT', 'Arial', sans-serif;font-weight:700;font-size:10.077px;">Reference</text>
        <text x="215.492px" y="297.985px" style="font-family:'Arial-BoldMT', 'Arial', sans-serif;font-weight:700;font-size:10.077px;">topics</text>
    </g>
    <g>
        <text x="295.128px" y="286.468px" style="font-family:'Arial-BoldMT', 'Arial', sans-serif;font-weight:700;font-size:10.077px;">Glossary</text>
        <text x="300.178px" y="297.985px" style="font-family:'Arial-BoldMT', 'Arial', sans-serif;font-weight:700;font-size:10.077px;">entries</text>
    </g>
    <g>
        <text x="305.587px" y="200.096px" style="font-family:'Arial-BoldMT', 'Arial', sans-serif;font-weight:700;font-size:10.077px;">T<tspan x="310.994px 316.597px " y="200.096px 200.096px ">as</tspan>k</text>
        <text x="301.853px" y="211.613px" style="font-family:'Arial-BoldMT', 'Arial', sans-serif;font-weight:700;font-size:10.077px;">topics</text>
    </g>
    <g transform="matrix(0,0.71977,-0.71977,0,514.502,-32.5228)">
        <path d="M240.685,334.315L519.315,334.315" style="fill:none;fill-rule:nonzero;stroke:black;stroke-width:1px;"/>
    </g>
    <g transform="matrix(-0.321891,-0.643781,0.643781,-0.321891,90.15,740.181)">
        <path d="M376.87,473.815L384.696,473.815L381.565,476.163L381.565,480.076L376.87,473.815Z" style="fill-rule:nonzero;stroke:black;stroke-width:1px;"/>
    </g>
    <g transform="matrix(0.71977,0,0,-0.71977,0.359885,395.247)">
        <path d="M380,353.63L380,208.63L440,208.63L440,195" style="fill:none;fill-rule:nonzero;stroke:black;stroke-width:1px;"/>
    </g>
    <g transform="matrix(-0.321891,-0.643781,0.643781,-0.321891,229.903,653.809)">
        <path d="M436.87,353.815L444.696,353.815L441.565,356.163L441.565,360.076L436.87,353.815Z" style="fill-rule:nonzero;stroke:black;stroke-width:1px;"/>
    </g>
    <g transform="matrix(0.71977,0,0,-0.71977,0.359885,395.247)">
        <path d="M380,353.63L380,208.63L320,208.63L320,195" style="fill:none;fill-rule:nonzero;stroke:black;stroke-width:1px;"/>
    </g>
    <g transform="matrix(-0.321891,-0.643781,0.643781,-0.321891,104.904,576.555)">
        <path d="M316.87,353.815L324.696,353.815L321.565,356.163L321.565,360.076L316.87,353.815Z" style="fill-rule:nonzero;stroke:black;stroke-width:1px;"/>
    </g>
    <g transform="matrix(0.71977,0,0,-0.71977,0.359885,312.474)">
        <path d="M380,233.63L380,213.63L440,213.63L440,200" style="fill:none;fill-rule:nonzero;stroke:black;stroke-width:1px;"/>
    </g>
    <g transform="matrix(-0.321891,-0.643781,0.643781,-0.321891,307.157,528.81)">
        <path d="M436.87,233.815L444.696,233.815L441.565,236.163L441.565,240.076L436.87,233.815Z" style="fill-rule:nonzero;stroke:black;stroke-width:1px;"/>
    </g>
    <g transform="matrix(0.71977,0,0,-0.71977,0.359885,312.474)">
        <path d="M380,233.63L380,213.63L320,213.63L320,200" style="fill:none;fill-rule:nonzero;stroke:black;stroke-width:1px;"/>
    </g>
    <g transform="matrix(-0.321891,-0.643781,0.643781,-0.321891,182.158,451.556)">
        <path d="M316.87,233.815L324.696,233.815L321.565,236.163L321.565,240.076L316.87,233.815Z" style="fill-rule:nonzero;stroke:black;stroke-width:1px;"/>
    </g>
</svg>
