<?xml version="1.0" encoding="UTF-8" standalone="no"?>
<!DOCTYPE svg PUBLIC "-//W3C//DTD SVG 1.1//EN" "http://www.w3.org/Graphics/SVG/1.1/DTD/svg11.dtd">
<svg width="100%" height="100%" viewBox="0 0 300 80" version="1.1" xmlns="http://www.w3.org/2000/svg" xmlns:xlink="http://www.w3.org/1999/xlink" xml:space="preserve" xmlns:serif="http://www.serif.com/" style="fill-rule:evenodd;clip-rule:evenodd;stroke-linejoin:round;stroke-miterlimit:2;">
    <g id="Layer2" transform="matrix(1,0,0,0.833333,0,-20)">
        <rect x="0" y="0" width="300" height="120" style="fill:white;"/>
    </g>
    <g transform="matrix(1,0,0,1,10,-6.66667)">
        <text x="40px" y="29px" style="font-family:'Roboto-Regular', 'Roboto';font-size:12px;">magic wand cleaning center</text>
        <rect x="40" y="26" width="149.379" height="0.598"/>
    </g>
    <g transform="matrix(1,0,0,1,10,33.3333)">
        <text x="40px" y="29px" style="font-family:'Roboto-Regular', 'Roboto';font-size:12px;">center for cleaning magic wands</text>
    </g>
    <g transform="matrix(0.0520833,0,0,0.0520833,10,48.3333)">
        <path d="M466.27,286.69C475.04,271.84 480,256 480,236.85C480,192.835 442.782,151.27 394.18,151.27L357.7,151.27C362.62,138.46 366.55,123.14 366.55,104.73C366.55,31.936 328.86,0 271.28,0C209.673,0 213.187,94.933 199.52,108.6C176.773,131.347 149.905,175.047 130.76,192L32,192C14.327,192 0,206.327 0,224L0,464C0,481.673 14.327,496 32,496L96,496C110.893,496 123.408,485.826 126.978,472.05C171.487,473.051 202.038,511.99 304.78,511.99C312,511.99 320,512 327,512C404.117,512 438.986,472.577 439.94,416.67C453.259,398.245 460.239,373.548 457.28,349.68C467.134,331.228 470.944,309.337 466.27,286.69ZM404.52,340.52C417.08,361.65 405.78,389.93 390.58,398.09C398.28,446.87 372.972,463.99 337.46,463.99L299.64,463.99C228.001,463.99 181.611,426.17 128,426.17L128,240L138.92,240C167.28,240 206.9,169.11 233.46,142.54C261.82,114.18 252.37,66.91 271.28,48C318.55,48 318.55,80.98 318.55,104.73C318.55,143.9 290.19,161.45 290.19,199.27L394.18,199.27C415.29,199.27 431.91,218.18 432,237.09C432.09,255.99 419.18,274.9 409.73,274.9C423.219,289.455 426.101,320.136 404.52,340.52ZM88,432C88,445.255 77.255,456 64,456C50.745,456 40,445.255 40,432C40,418.745 50.745,408 64,408C77.255,408 88,418.745 88,432Z" style="fill:rgb(63,146,27);fill-rule:nonzero;"/>
    </g>
    <g transform="matrix(0.0520833,0,0,0.0520833,10,8.33333)">
        <g id="Layer1">
            <path d="M466.27,225.31C470.944,202.663 467.134,180.772 457.28,162.32C460.238,138.452 453.259,113.755 439.94,95.33C438.986,39.423 404.117,0 327,0C320,0 312,0.01 304.78,0.01C201.195,0.01 168.997,40 128,40L117.155,40C111.515,35.025 104.113,32 96,32L32,32C14.327,32 0,46.327 0,64L0,304C0,321.673 14.327,336 32,336L96,336C107.842,336 118.175,329.562 123.708,320L130.76,320C149.906,336.953 176.773,380.653 199.52,403.4C213.187,417.067 209.673,512 271.28,512C328.86,512 366.55,480.064 366.55,407.27C366.55,388.86 362.62,373.54 357.7,360.73L394.18,360.73C442.782,360.73 480,319.165 480,275.15C480,256 475.04,240.16 466.27,225.31ZM64,296C50.745,296 40,285.255 40,272C40,258.745 50.745,248 64,248C77.255,248 88,258.745 88,272C88,285.255 77.255,296 64,296ZM394.18,312.73L290.19,312.73C290.19,350.55 318.55,368.1 318.55,407.27C318.55,431.02 318.55,464 271.28,464C252.37,445.09 261.82,397.82 233.46,369.46C206.9,342.89 167.28,272 138.92,272L128,272L128,85.83C181.611,85.83 228.001,48.01 299.64,48.01L337.46,48.01C372.972,48.01 398.28,65.13 390.58,113.91C405.78,122.07 417.08,150.35 404.52,171.48C426.101,191.864 423.219,222.545 409.73,237.1C419.18,237.1 432.09,256.01 432,274.91C431.91,293.82 415.29,312.73 394.18,312.73Z" style="fill:rgb(189,27,23);fill-rule:nonzero;"/>
        </g>
    </g>
</svg>
